<?xml version="1.0" encoding="utf-8"?>
<!-- Generator: Adobe Illustrator 23.0.1, SVG Export Plug-In . SVG Version: 6.00 Build 0)  -->
<svg version="1.1" id="Ñëîé_1" xmlns="http://www.w3.org/2000/svg" xmlns:xlink="http://www.w3.org/1999/xlink" x="0px" y="0px" viewBox="0 0 422.03 128.81" xml:space="preserve">
<g id="logo">
	<g>
		<path fill="#ffffff" d="M115.57,101.63H95.6L89.49,86.9H56.22l-5.56,14.73H31.02l30-74.41h21.49L115.57,101.63z M72.04,45L61.13,73.91h22.91
			L72.04,45z"/>
		<path fill="#ffffff" id="XMLID_5_" d="M188.09,27.23h16.15v74.41h-18.55V55.16L165.62,78.5h-2.84l-20.07-23.34v46.47h-18.55v-74.4h16.15
			l23.89,27.6L188.09,27.23z"/>
		<path fill="#ffffff" d="M251.24,27.23c27.16,0,41.13,16.91,41.13,37.31c0,21.38-13.53,37.1-43.2,37.1H218.4V27.23H251.24z M236.94,87.99h12.11
			c18.66,0,24.22-12.66,24.22-23.57c0-12.77-6.87-23.56-24.44-23.56h-11.89L236.94,87.99L236.94,87.99z"/>
	</g>
	<g>
		<polygon fill="#ffffff" id="XMLID_2_" points="367.63,44.87 329.26,44.87 305.88,21.48 391.02,21.48 391.02,106.62 367.63,83.23"/>
		<polygon fill="#ffffff" id="XMLID_1_" points="329.24,83.26 329.24,49.55 305.16,73.63 305.16,107.34 338.86,107.34 362.93,83.26"/>
	</g>
</g>
</svg>
