<?xml version="1.0" encoding="utf-8"?>
<!-- Generator: Adobe Illustrator 23.0.1, SVG Export Plug-In . SVG Version: 6.00 Build 0)  -->
<svg version="1.1" id="Layer_1" xmlns="http://www.w3.org/2000/svg" xmlns:xlink="http://www.w3.org/1999/xlink" x="0px" y="0px"
	 viewBox="0 0 38 30.5" style="enable-background:new 0 0 38 30.5;" xml:space="preserve">
<style type="text/css">
	.st0{fill:#EDEDED;}
</style>
<path class="st0" d="M37.3,23.8c0,2.7-2.2,4.9-4.9,4.9H5.6c-2.7,0-4.9-2.2-4.9-4.9V8.1c0-2.7,2.2-4.9,4.9-4.9h26.8
	c2.7,0,4.9,2.2,4.9,4.9L37.3,23.8L37.3,23.8z"/>
<path d="M32.4,1.8H5.6C2.5,1.8,0,4.3,0,7.4v15.7c0,3.1,2.5,5.6,5.6,5.6h26.8c3.1,0,5.6-2.5,5.6-5.6V7.4C38,4.3,35.5,1.8,32.4,1.8z
	 M22.1,10.4c0,0.1,0,0.2,0.1,0.2c0,0,0,0,0,0c0,0.1,0.1,0.1,0.2,0.2c1.4,1.1,2.2,2.7,2.2,4.4s-0.8,3.4-2.2,4.4l0,0l-0.1,0.1
	c0,0,0,0,0,0.1c0,0,0,0.1-0.1,0.2v7.3h-6.2v-7.2v-0.1c0-0.1,0-0.1,0-0.2c0,0,0,0,0,0c0-0.1-0.1-0.1-0.2-0.2
	c-1.4-1.1-2.2-2.7-2.2-4.4s0.8-3.4,2.2-4.4l0.2-0.2c0,0,0,0,0,0c0,0,0-0.1,0-0.2V3.2h6.2L22.1,10.4C22.1,10.3,22.1,10.4,22.1,10.4z
	 M36.7,18.1H25.3c0.4-0.9,0.6-1.8,0.6-2.8c0-0.9-0.2-1.9-0.6-2.7h11.3L36.7,18.1L36.7,18.1z M1.3,12.6h11.3
	c-0.4,0.8-0.6,1.7-0.6,2.7c0,1,0.2,1.9,0.6,2.8H1.3V12.6z M5.6,3.2h9V10c-0.4,0.4-0.8,0.8-1.2,1.3H1.3V7.4C1.3,5.1,3.2,3.2,5.6,3.2z
	 M1.3,23.1v-3.7h12.1c0.3,0.4,0.7,0.8,1.1,1.1v6.8H5.6C3.2,27.4,1.3,25.5,1.3,23.1z M32.4,27.4h-9v-6.8c0.4-0.4,0.8-0.7,1.1-1.1
	h12.1v3.7C36.7,25.5,34.8,27.4,32.4,27.4z M36.7,11.3H24.6c-0.3-0.5-0.7-0.9-1.2-1.3V3.2h9c2.3,0,4.2,1.9,4.2,4.2L36.7,11.3
	C36.6,11.3,36.7,11.3,36.7,11.3z"/>
</svg>
