<?xml version="1.0" encoding="utf-8"?>
<!-- Generator: Adobe Illustrator 23.0.1, SVG Export Plug-In . SVG Version: 6.00 Build 0)  -->
<svg version="1.1" id="Layer_1" xmlns="http://www.w3.org/2000/svg" xmlns:xlink="http://www.w3.org/1999/xlink" x="0px" y="0px"
	 viewBox="0 0 500 500" style="enable-background:new 0 0 500 500;" xml:space="preserve">
<style type="text/css">
	.st0{fill:#0A0C01;}
	.st1{fill:#92C800;}
</style>
<rect x="-43" y="-35" class="st0" width="575" height="559"/>
<g>
	<g>
		<path class="st1" d="M410.79,162.75c-34.17-55.57-93.49-73.36-158.69-80.98c-65.19-7.63-146.6,41.55-172.04,94.13
			c-25.44,52.58,25.15,116.06,29.54,126.72c4.39,10.66-16.23,75.73-14.4,90.68c1.83,14.95,28.97,25.13,54.4,23.43
			c25.44-1.7,48.7,13.75,50,35.71c1.3,21.95,19.12,27.04,57.28,27.04c0,0-33.4-3.95-32.15-32.57c1.25-28.61,20.15-53.59,20.15-53.59
			l-23.21,14.61l33.93-37.84l36.34,36.28l-32.23-61.32c0,0-3.28-11.53,8.62-9.31c11.9,2.22,33.08,21.62,72.5,25.44
			c0,0-34.22-14.09-50.88-31.8c0,0,79.01,10.74,89.11-35.34c0,0-39.48,0.57-66.22,2.26c0,0,54.47-18.88,60.59-25.63
			c-42.36,10.37-65.53,13.71-87.29,16.73c-21.77,3.02-29.7,1.49-28.21-41.87c0,0-8.68,29.15-34.12,29.15
			c-25.45,0-69.52-26.4-78.01-73.62c-8.49-47.22,44.8-107.86,111.08-104.46c94.97,4.87,180.55,80.86,146.98,191.1
			c-0.18,0.03-0.39,0.07-0.01,0.03c0.29-0.07,0.16-0.05,0.01-0.03C415.32,260.87,436.04,203.83,410.79,162.75z M152.57,409.53
			c-41.98-2.54-48.57-23.64-42.82-45.37c5.74-21.73,9.33-67,9.33-67s-22.47-22.47-34.53-73.75
			c-12.06-51.27,50.48-100.56,50.48-100.56c-96.52,85.26-6.63,172.61-6.63,172.61c-29.25,110.67,10.18,100.06,43.26,105.16
			c33.07,5.09,36.52,40.19,36.52,40.19C197.63,409.77,152.57,409.53,152.57,409.53z M236.53,302.68c0,0,2.54,39.43-44.52,54.69
			c0,0,21.62-8.9,24.17-30.53c0,0-55.97,20.35-81.31-23.28L236.53,302.68z"/>
		<path class="st1" d="M398.71,302.68L386.2,322.6c0,0,0.85,6.78,8.48,10.17c7.63,3.4,22.05,71.23-13.57,78.87
			c-35.61,7.63-63.61,11.87-69.54,33.07c-5.94,21.2-10.19,30.53-36.47,32.22c0,0,37.31,8.48,43.25-8.48
			c5.94-16.96,6.81-37.83,32.23-43.25c25.41-5.42,63.65-3.49,63.2-28.46c-0.45-24.97-9.78-69.07-12.32-71.61
			S390.23,324.72,398.71,302.68z"/>
		<path class="st1" d="M171.65,140.28c0,0,33.92-29.68,94.98-23.74c61.05,5.93,148.4,69.54,117.87,168.75
			c0,0,26.29-34.77,9.33-89.89C376.87,140.28,274.25,57.18,171.65,140.28z"/>
		<g>
			<path class="st1" d="M104.51,301.98c-3.4-8.26-34.47-48.19-36.53-90.2c-10.85,3.09-28.4,9.05-42.61,18.39l33.07,110.67
				c0,0,22.27-0.73,41.88-4.38C103.79,320.53,106.36,306.45,104.51,301.98z M32.36,235.89c0,0,3.82-10.81,27.99-13.99
				c0,0-24.81,8.27-20.36,23.53c4.46,15.26,22.26,85.86,22.26,85.86L32.36,235.89z"/>
			<path class="st1" d="M27.27,247.98c0,0-11.44,5.09-10.18,15.9c1.28,10.81,14.63,53.42,14.63,53.42s5.09,11.45,18.44,4.45
				L27.27,247.98z"/>
		</g>
		<g>
			<path class="st1" d="M429.23,208.55c-2.04,42.01-24.62,93.77-28.62,101.76c-5.71,11.45,6.37,3.82,7.63,24.17
				c19.62,3.65,38.32,6.36,38.32,6.36l33.07-110.67C465.43,220.83,440.09,211.64,429.23,208.55z M442.75,331.29
				c0,0,17.81-70.6,22.26-85.86c4.45-15.26-20.35-23.53-20.35-23.53c24.17,3.18,27.98,13.99,27.98,13.99L442.75,331.29z"/>
			<path class="st1" d="M477.73,247.98c0,0,11.45,5.09,10.17,15.9c-1.27,10.81-14.62,53.42-14.62,53.42s-5.09,11.45-18.44,4.45
				L477.73,247.98z"/>
		</g>
		<path class="st1" d="M248.56,23.25c-104.46,0-189.13,84.68-189.13,189.13c0,2.62,0.09,5.22,0.23,7.81
			c1.73-0.64,3.57-1.06,5.52-1.11c0.33,0,0.66-0.04,0.98-0.05c0.56-0.13,1.11-0.3,1.66-0.45c-0.01-0.68-0.05-1.35-0.05-2.03
			c0-99.85,80.93-180.78,180.78-180.78c99.77,0,180.65,80.8,180.79,180.54c2.79,0.67,5.5,1.5,8.15,2.46c0.09-2.12,0.2-4.24,0.2-6.39
			C437.7,107.93,353.02,23.25,248.56,23.25z"/>
	</g>
</g>
</svg>
