<?xml version="1.0" encoding="utf-8"?>
<!-- Generator: Adobe Illustrator 23.0.1, SVG Export Plug-In . SVG Version: 6.00 Build 0)  -->
<svg version="1.1" id="Layer_1" xmlns="http://www.w3.org/2000/svg" xmlns:xlink="http://www.w3.org/1999/xlink" x="0px" y="0px"
	 viewBox="0 0 500 500" style="enable-background:new 0 0 500 500;" xml:space="preserve">
<style type="text/css">
	.st0{fill:#0A0C01;}
	.st1{fill:#92C800;}
</style>
<g>
	<circle class="st0" cx="250" cy="250" r="244.3"/>
	<g>
		<g>
			<path class="st1" d="M392.4,170.3c-30.7-50-84.1-66-142.8-72.9c-58.7-6.9-131.9,37.4-154.8,84.7s22.6,104.4,26.6,114
				c4,9.6-14.6,68.1-13,81.6c1.6,13.5,26.1,22.6,48.9,21.1c22.9-1.5,43.8,12.4,45,32.1c1.2,19.8,17.2,24.3,51.5,24.3
				c0,0-30.1-3.6-28.9-29.3c1.1-25.7,18.1-48.2,18.1-48.2l-20.9,13.1l30.5-34l32.7,32.6l-29-55.2c0,0-3-10.4,7.8-8.4
				c10.7,2,29.8,19.5,65.2,22.9c0,0-30.8-12.7-45.8-28.6c0,0,71.1,9.7,80.2-31.8c0,0-35.5,0.5-59.6,2c0,0,49-17,54.5-23.1
				c-38.1,9.3-59,12.3-78.5,15.1c-19.6,2.7-26.7,1.3-25.4-37.7c0,0-7.8,26.2-30.7,26.2c-22.9,0-62.6-23.8-70.2-66.2
				c-7.6-42.5,40.3-97.1,99.9-94c85.5,4.4,162.5,72.8,132.3,171.9c-0.2,0-0.4,0.1,0,0c0.3-0.1,0.1,0,0,0
				C396.5,258.6,415.2,207.2,392.4,170.3z M160.1,392.3c-37.8-2.3-43.7-21.3-38.5-40.8c5.2-19.6,8.4-60.3,8.4-60.3
				s-20.2-20.2-31.1-66.4c-10.9-46.1,45.4-90.5,45.4-90.5c-86.8,76.7-6,155.3-6,155.3c-26.3,99.6,9.2,90,38.9,94.6
				c29.8,4.6,32.9,36.2,32.9,36.2C200.6,392.5,160.1,392.3,160.1,392.3z M235.6,296.2c0,0,2.3,35.5-40.1,49.2c0,0,19.5-8,21.7-27.5
				c0,0-50.4,18.3-73.2-20.9L235.6,296.2z"/>
			<path class="st1" d="M381.6,296.2l-11.3,17.9c0,0,0.8,6.1,7.6,9.2c6.9,3.1,19.8,64.1-12.2,71c-32,6.9-57.2,10.7-62.6,29.8
				c-5.3,19.1-9.2,27.5-32.8,29c0,0,33.6,7.6,38.9-7.6s6.1-34,29-38.9c22.9-4.9,57.3-3.1,56.9-25.6c-0.4-22.5-8.8-62.1-11.1-64.4
				C381.8,314.1,373.9,316,381.6,296.2z"/>
			<path class="st1" d="M177.3,150c0,0,30.5-26.7,85.5-21.4c54.9,5.3,133.5,62.6,106.1,151.8c0,0,23.7-31.3,8.4-80.9
				C361.9,150,269.6,75.3,177.3,150z"/>
			<g>
				<path class="st1" d="M116.8,295.5c-3.1-7.4-31-43.4-32.9-81.2c-9.8,2.8-25.6,8.1-38.3,16.5l29.8,99.6c0,0,20-0.7,37.7-3.9
					C116.2,312.2,118.5,299.6,116.8,295.5z M51.9,236.1c0,0,3.4-9.7,25.2-12.6c0,0-22.3,7.4-18.3,21.2c4,13.7,20,77.3,20,77.3
					L51.9,236.1z"/>
				<path class="st1" d="M47.3,247c0,0-10.3,4.6-9.2,14.3c1.2,9.7,13.2,48.1,13.2,48.1s4.6,10.3,16.6,4L47.3,247z"/>
			</g>
			<g>
				<path class="st1" d="M409,211.5c-1.8,37.8-22.2,84.4-25.8,91.6c-5.1,10.3,5.7,3.4,6.9,21.7c17.7,3.3,34.5,5.7,34.5,5.7
					l29.8-99.6C441.6,222.5,418.8,214.3,409,211.5z M421.2,321.9c0,0,16-63.5,20-77.3c4-13.7-18.3-21.2-18.3-21.2
					c21.7,2.9,25.2,12.6,25.2,12.6L421.2,321.9z"/>
				<path class="st1" d="M452.7,247c0,0,10.3,4.6,9.2,14.3c-1.1,9.7-13.2,48.1-13.2,48.1s-4.6,10.3-16.6,4L452.7,247z"/>
			</g>
			<path class="st1" d="M246.5,44.7c-94,0-170.2,76.2-170.2,170.2c0,2.4,0.1,4.7,0.2,7c1.6-0.6,3.2-1,5-1c0.3,0,0.6,0,0.9,0
				c0.5-0.1,1-0.3,1.5-0.4c0-0.6,0-1.2,0-1.8C83.8,128.8,156.6,56,246.4,56c89.8,0,162.5,72.7,162.7,162.4c2.5,0.6,4.9,1.3,7.3,2.2
				c0.1-1.9,0.2-3.8,0.2-5.7C416.6,120.9,340.5,44.7,246.5,44.7z"/>
		</g>
	</g>
</g>
</svg>
