<?xml version="1.0" encoding="utf-8"?>
<!-- Generator: Adobe Illustrator 23.0.1, SVG Export Plug-In . SVG Version: 6.00 Build 0)  -->
<svg version="1.1" id="Layer_1" xmlns="http://www.w3.org/2000/svg" xmlns:xlink="http://www.w3.org/1999/xlink" x="0px" y="0px"
	 viewBox="0 0 418 279.33" style="enable-background:new 0 0 418 279.33;" xml:space="preserve">
<style type="text/css">
	.st0{fill:#ffffff;}
	.st1{enable-background:new    ;}
	.st2{font-family:'ArialMT';}
	.st3{font-size:16.6054px;}
</style>
<g id="XMLID_1_">
	<path id="path6" class="st0" d="M383.46,93.99C366.98,13.66,211.54,8.57,111.34,69.77v6.76C211.41,24.88,353.4,25.21,366.32,99.21
		c4.35,24.51-9.36,50.01-33.95,64.68v19.2C361.97,172.23,392.23,137.08,383.46,93.99 M201.26,234.64
		c-69.15,6.4-141.2-3.67-151.29-57.92c-5.01-26.71,7.19-55.06,23.27-72.65v-9.42c-29.01,25.53-44.76,57.82-35.66,95.95
		c11.6,48.93,73.44,76.63,167.84,67.4c37.38-3.61,86.29-15.69,120.24-34.42v-26.62C294.8,215.44,243.77,230.71,201.26,234.64z"/>
	<path id="path8" class="st0" d="M320.11,82.38h-18.13v81.1c0,9.52,4.55,17.81,18.13,19.12"/>
	<path id="path10" class="st0" d="M104.15,112.01H86.03v52.97c0,9.53,4.55,17.81,18.13,19.12"/>
	<rect id="rect12" x="86.03" y="84.84" class="st0" width="18.13" height="17.25"/>
	<path id="path14" class="st0" d="M212.79,183.25c-14.7,0-20.9-10.25-20.9-20.37V92.53h17.93v19.48h13.58v14.59h-13.58v35.19
		c0,4.14,1.98,6.41,6.26,6.41h7.32v15.05H212.79"/>
	<path id="path16" class="st0" d="M260.45,125.72c-6.13,0-10.87,3.19-12.85,7.49c-1.19,2.59-1.58,4.57-1.78,7.76h27.75
		C273.18,133.18,269.68,125.72,260.45,125.72 M245.82,153.25c0,9.23,5.8,16.03,15.95,16.03c7.98,0,11.93-2.23,16.55-6.8l11.08,10.68
		c-7.12,7.03-14.57,11.3-27.75,11.3c-17.2,0-33.69-9.43-33.69-36.9c0-23.49,14.37-36.77,33.29-36.77
		c19.18,0,30.19,15.54,30.19,35.95v6.51L245.82,153.25"/>
	<path id="path18" class="st0" d="M153,126.6c5.27,0,7.45,2.6,7.45,6.83v49.91h18v-49.98c0-10.15-5.41-21.36-21.16-21.36h-37.11
		v71.33h17.93V126.6"/>
	<g id="XMLID_2_" class="st1">
		<g>
			<g>
				<g>
					<text transform="matrix(1.0217 0 0 1 330.3767 94.2324)" class="st0 st2 st3">®</text>
				</g>
			</g>
		</g>
	</g>
</g>
</svg>
