<?xml version="1.0" encoding="utf-8"?>
<!-- Generator: Adobe Illustrator 23.0.1, SVG Export Plug-In . SVG Version: 6.00 Build 0)  -->
<svg version="1.1" id="Layer_1" xmlns="http://www.w3.org/2000/svg" xmlns:xlink="http://www.w3.org/1999/xlink" x="0px" y="0px"
	 viewBox="0 0 184 52" style="enable-background:new 0 0 184 52;" xml:space="preserve">
<style type="text/css">
	.st0{fill:#FFFFFF;}
	.st1{opacity:0.99;fill:#FFFFFF;}
</style>
<g>
	<g>
		<path class="st0" d="M37.2,18.08c-3.05-4.97-8.36-6.56-14.19-7.24c-5.83-0.68-13.11,3.71-15.38,8.41
			c-2.27,4.7,2.25,10.38,2.64,11.33c0.39,0.95-1.45,6.77-1.29,8.11c0.16,1.34,2.59,2.25,4.86,2.09c2.27-0.15,4.35,1.23,4.47,3.19
			c0.12,1.96,1.71,2.42,5.12,2.42c0,0-2.99-0.35-2.87-2.91c0.11-2.56,1.8-4.79,1.8-4.79L20.3,40l3.03-3.38l3.25,3.24l-2.88-5.48
			c0,0-0.29-1.03,0.77-0.83c1.06,0.2,2.96,1.93,6.48,2.27c0,0-3.06-1.26-4.55-2.84c0,0,7.06,0.96,7.97-3.16c0,0-3.53,0.05-5.92,0.2
			c0,0,4.87-1.69,5.42-2.29c-3.79,0.93-5.86,1.23-7.8,1.5c-1.95,0.27-2.66,0.13-2.52-3.74c0,0-0.78,2.61-3.05,2.61
			c-2.27,0-6.21-2.36-6.97-6.58c-0.76-4.22,4-9.64,9.93-9.34c8.49,0.44,16.14,7.23,13.14,17.08c-0.02,0-0.03,0.01,0,0
			c0.03-0.01,0.01,0,0,0C37.61,26.85,39.46,21.75,37.2,18.08z M14.12,40.14c-3.75-0.23-4.34-2.11-3.83-4.06
			c0.51-1.94,0.83-5.99,0.83-5.99s-2.01-2.01-3.09-6.59c-1.08-4.58,4.51-8.99,4.51-8.99c-8.63,7.62-0.59,15.43-0.59,15.43
			c-2.61,9.89,0.91,8.95,3.87,9.4c2.96,0.45,3.26,3.59,3.26,3.59C18.15,40.16,14.12,40.14,14.12,40.14z M21.62,30.59
			c0,0,0.23,3.53-3.98,4.89c0,0,1.93-0.8,2.16-2.73c0,0-5,1.82-7.27-2.08L21.62,30.59z"/>
		<path class="st0" d="M36.12,30.59L35,32.37c0,0,0.08,0.61,0.76,0.91c0.68,0.3,1.97,6.37-1.21,7.05c-3.18,0.68-5.69,1.06-6.22,2.96
			c-0.53,1.9-0.91,2.73-3.26,2.88c0,0,3.34,0.76,3.87-0.76c0.53-1.52,0.61-3.38,2.88-3.87c2.27-0.48,5.69-0.31,5.65-2.54
			c-0.04-2.23-0.87-6.17-1.1-6.4S35.37,32.56,36.12,30.59z"/>
		<path class="st0" d="M15.83,16.07c0,0,3.03-2.65,8.49-2.12c5.46,0.53,13.27,6.22,10.54,15.09c0,0,2.35-3.11,0.83-8.04
			C34.17,16.07,25,8.64,15.83,16.07z"/>
		<g>
			<path class="st0" d="M9.82,30.52c-0.3-0.74-3.08-4.31-3.27-8.06c-0.97,0.28-2.54,0.81-3.81,1.64L5.7,34c0,0,1.99-0.07,3.74-0.39
				C9.76,32.18,9.99,30.92,9.82,30.52z M3.37,24.62c0,0,0.34-0.97,2.5-1.25c0,0-2.22,0.74-1.82,2.1c0.4,1.36,1.99,7.68,1.99,7.68
				L3.37,24.62z"/>
			<path class="st0" d="M2.92,25.7c0,0-1.02,0.45-0.91,1.42c0.11,0.97,1.31,4.78,1.31,4.78s0.45,1.02,1.65,0.4L2.92,25.7z"/>
		</g>
		<g>
			<path class="st0" d="M38.85,22.17c-0.18,3.76-2.2,8.38-2.56,9.1c-0.51,1.02,0.57,0.34,0.68,2.16C38.73,33.76,40.4,34,40.4,34
				l2.96-9.89C42.09,23.27,39.82,22.45,38.85,22.17z M40.06,33.14c0,0,1.59-6.31,1.99-7.68c0.4-1.36-1.82-2.1-1.82-2.1
				c2.16,0.28,2.5,1.25,2.5,1.25L40.06,33.14z"/>
			<path class="st0" d="M43.19,25.7c0,0,1.02,0.45,0.91,1.42c-0.11,0.97-1.31,4.78-1.31,4.78s-0.45,1.02-1.65,0.4L43.19,25.7z"/>
		</g>
		<path class="st0" d="M22.7,5.61c-9.34,0-16.91,7.57-16.91,16.91c0,0.23,0.01,0.47,0.02,0.7c0.15-0.06,0.32-0.1,0.49-0.1
			c0.03,0,0.06,0,0.09,0c0.05-0.01,0.1-0.03,0.15-0.04c0-0.06,0-0.12,0-0.18c0-8.93,7.23-16.16,16.16-16.16
			c8.92,0,16.15,7.22,16.16,16.14c0.25,0.06,0.49,0.13,0.73,0.22c0.01-0.19,0.02-0.38,0.02-0.57C39.61,13.18,32.04,5.61,22.7,5.61z"
			/>
	</g>
</g>
<path class="st0" d="M150.12,27.59c2.97,0.07,5.94,0.15,8.91,0.22c-0.15,5.66-3.79,11.09-8.97,13.38s-11.64,1.33-15.94-2.37
	c-3.05-2.63-4.97-6.51-5.22-10.52s1.17-8.1,3.84-11.11c2.92-3.29,7.11-5.02,11.48-5.02c3.33,0,6.65,1.07,9.28,3.13
	c2.87,2.24,4.78,5.78,5.46,9.32c-3.06,0.1-6.12,0.35-9.16,0.76c-0.41-2.01-1.93-3.75-3.87-4.43c-1.94-0.68-4.21-0.27-5.79,1.04
	c-1.04,0.86-1.76,2.07-2.14,3.37c-0.52,1.78-0.38,3.78,0.54,5.4c1.35,2.37,4.39,3.63,7.02,2.91
	C148.18,32.96,150.15,30.32,150.12,27.59z"/>
<path class="st0" d="M178.46,24.14c0.31,0.09-0.32,6.32,0,6.34c-2.04-0.1-4.17-0.12-6.21,0.03c-0.44,0.03-0.91,0.17-1.18,0.51
	c-0.29,0.36-0.32,0.87-0.25,1.32c0.04,0.24,0.1,0.5,0.28,0.67c0.14,0.13,0.32,0.21,0.5,0.26c0.88,0.25,1.99,0.12,2.89,0.14
	c1.38,0.03,3.21-0.3,4.53,0.07c0.31,0.09-0.26,8.17-0.02,8.17c-3.36,0-6.83,0.22-10.16-0.16c-1.47-0.17-2.95-0.61-4.05-1.59
	c-0.96-0.86-1.55-2.06-1.86-3.31c-0.7-2.78-0.4-5.94-0.4-8.79c0-2.07,0-4.15,0-6.23c0-1.42-0.07-2.9,0.21-4.3
	c0.39-1.93,1.57-3.38,3.47-3.96c1.9-0.58,4.12-0.47,6.1-0.48c0.57,0,6.65-0.1,6.68,0.07c0.18,1.26,0.01,2.66,0.01,3.94
	c0,1.44,0,2.88,0.02,4.31c0-0.24-5.84-0.05-6.36,0.06c-0.45,0.1-0.89,0.34-1.14,0.73c-0.24,0.38-0.27,0.9-0.07,1.3
	c0.41,0.83,1.49,0.83,2.29,0.83C175.24,24.08,176.96,23.72,178.46,24.14z"/>
<path class="st0" d="M105.37,36.19c-0.44-0.95-0.87-1.89-1.31-2.84c-0.26-0.57-0.97-1.54-0.88-2.22c0.12-0.88,1.21-1.96,1.65-2.72
	c1.05-1.85,1.94-3.82,1.94-5.98c0-2.85-1.03-5.2-3.08-7.06c-1.84-1.66-4.43-2.49-7.78-2.49H84.94v28.76h8.55V32.8l5.42,8.85h8.97
	C107.05,39.83,106.21,38.01,105.37,36.19z M97.64,25.81c0,0,1.93-0.8,2.16-2.73c0,0-5,1.82-7.27-2.08l9.09-0.08
	C101.62,20.92,101.85,24.45,97.64,25.81z"/>
<path class="st0" d="M119.2,12.18c-3.5,0-6.21,0.98-8.14,2.94c-1.93,1.96-2.9,4.71-2.9,8.25c0,0,0,6.83,0,6.83
	c0,3.82,0,7.64,0,11.46c0,0,8.55,0,8.55,0v-6.85l3.83,0.19v6.66h8.55V23.07c0-3.71-0.81-6.45-2.42-8.23
	C125.06,13.07,122.57,12.18,119.2,12.18z"/>
<path class="st1" d="M72.17,9.29c-0.9,2.11-1.64,3.72-2.21,4.82c-1.62,2.99-2.73,4.97-3.33,5.92c-1.36-2.22-2.44-4.14-3.22-5.77
	c-1.03-2.29-1.75-3.95-2.17-4.97H49.17c0.52,6.29,0.88,11.64,1.07,16.05c0.28,7.66,0.47,13.09,0.57,16.31h7.58l0.21-9.84l8.03,10.62
	l7.44-10.7l0.21,9.92h7.63c0.1-6.01,0.25-11.42,0.44-16.22c0.38-7.81,0.67-13.19,0.87-16.14H72.17z M53.36,35.07l-2.52-22.78
	c0,0,1.34-2.26,6.91-1.91c0,0-5.95,0.77-5.62,4.4C52.47,18.4,53.36,35.07,53.36,35.07z"/>
</svg>
