<?xml version="1.0" encoding="utf-8"?>
<!-- Generator: Adobe Illustrator 23.0.1, SVG Export Plug-In . SVG Version: 6.00 Build 0)  -->
<svg version="1.1" id="carrito" xmlns="http://www.w3.org/2000/svg" xmlns:xlink="http://www.w3.org/1999/xlink" x="0px" y="0px" viewBox="0 0 521.3 596.4" style="enable-background:new 0 0 521.3 596.4;" xml:space="preserve">
<g id="centro">
	<g>
		<path class="st0" d="M188.2,260.1l17.4,121.7h34L257,260.1H188.2z"/>
	</g>
	<g>
		<path class="st1" d="M86.6,260.1L114,381.9h45l-17.4-121.7L86.6,260.1z"/>
	</g>
	<g>
		<path class="st2" d="M286.2,381.9H334l24.6-121.7h-55L286.2,381.9z"/>
	</g>
</g>
<path id="estructura" class="st0" d="M30.8,213.1c-1.9,2.2-2.7,5.2-2.2,8.1l28.1,169.4c4,24.3,24.8,41.9,49.4,41.9h253.6l-3.6,17.9 H98.4c-5.5,0-10,4.5-10,10c0,4.7,3.2,8.6,7.5,9.7c-4.7,7-7.5,15.5-7.5,24.6c0,24.4,19.9,44.3,44.3,44.3s44.3-19.9,44.3-44.3 c0-9-2.7-17.3-7.3-24.3h138.7c-4.6,7-7.3,15.3-7.3,24.3c0,24.4,19.9,44.3,44.3,44.3s44.3-19.9,44.3-44.3c0-13.4-5.9-25.4-15.3-33.5 l60.8-300.9h57.1c5.5,0,10-4.5,10-10s-4.5-10-10-10H427c-4.8,0-8.9,3.4-9.8,8l-12.4,61.3H38.4C35.5,209.6,32.7,210.9,30.8,213.1 L30.8,213.1z M345.3,470.3c13.4,0,24.3,10.9,24.3,24.3S358.7,519,345.3,519c-13.4,0-24.3-10.9-24.3-24.3S331.9,470.3,345.3,470.3z M108.4,494.7c0-13.4,10.9-24.3,24.3-24.3s24.3,10.9,24.3,24.3S146.1,519,132.7,519S108.4,508.1,108.4,494.7z M50.2,229.6h350.4 l-36.9,182.9H106.1c-14.8,0-27.3-10.6-29.7-25.2L50.2,229.6z"/>
<g id="cruz">
	<path class="st0" d="M299.1,324.1c0-42.2-34.3-76.4-76.4-76.4s-76.5,34.3-76.5,76.4s34.3,76.4,76.5,76.4S299.1,366.2,299.1,324.1z M279.1,324.1c0,31.1-25.3,56.4-56.4,56.4s-56.5-25.3-56.5-56.4s25.3-56.4,56.5-56.4C253.7,267.6,279.1,292.9,279.1,324.1z"/>
	<path class="st0" d="M247.6,349c3.9-3.9,3.9-10.2,0-14.1l-10.8-10.8l10.8-10.8c3.9-3.9,3.9-10.2,0-14.1s-10.2-3.9-14.1,0L222.7,310 l-10.8-10.8c-3.9-3.9-10.2-3.9-14.1,0s-3.9,10.2,0,14.1l10.8,10.8l-10.8,10.8c-3.9,3.9-3.9,10.2,0,14.1c2,2,4.5,2.9,7.1,2.9 s5.1-1,7.1-2.9l10.8-10.8l10.8,10.8c2,2,4.5,2.9,7.1,2.9S245.6,351,247.6,349L247.6,349z"/>
</g>
</svg>
